<svg xmlns="http://www.w3.org/2000/svg" viewBox="0 0 830.57 711.73"><path fill="#f5f5f5" d="M68.35 169.89H455v126.93h-14.65v33.2l-33.19-33.2H68.35V169.89z"/><path fill="#fff" d="M79.09 182.25h365.17V283.8H79.09z"/><path fill="#03a9f4" d="M108.45 211.9h175.82v5.34H108.45z"/><path fill="#f5f5f5" d="M108.45 230.36h306.44v5.34H108.45zm0 18.46h306.14v5.34H108.45zm278.2 90.97H0v126.93h14.65v33.19l33.19-33.19h338.81V339.79z"/><path fill="#fff" d="M10.74 352.15h365.17V453.7H10.74z"/><path fill="#03a9f4" d="M43.03 382.77h175.82v5.34H43.03z"/><path fill="#f5f5f5" d="M43.03 401.23h306.44v5.34H43.03zm0 18.46h306.14v5.34H43.03zM386.65 0H0v126.93h14.65v33.2l33.19-33.2h338.81V0z"/><path fill="#fff" d="M10.74 12.36h365.17v101.55H10.74z"/><path fill="#03a9f4" d="M43.03 42.98h175.82v5.34H43.03z"/><path fill="#f5f5f5" d="M43.03 61.44h306.44v5.34H43.03zm0 18.46h306.14v5.34H43.03z"/><path fill="#ffb8b8" d="M679.31 695.51H663.4l-7.57-61.38h23.49l-.01 61.38z"/><path d="M683.37 710.94h-51.31v-.65a20 20 0 0120-20h31.34z" fill="#212121"/><path fill="#ffb8b8" d="M656.94 649.36l-14.81 5.83-29.52-54.35 21.85-8.6 22.48 57.12z"/><path d="M666.36 662.23L618.62 681l-.24-.61a20 20 0 0111.27-25.9L658.81 643z" fill="#212121"/><path d="M652.09 675.56l5.07-186.22-22.55 79.83 16.29 55.4-27 23-27.55-87.9-.05-.16 27.38-144.75 81-3.91h.57l.1.57c.08.48 7.73 48.54 1.29 83.3s-21.9 181.49-22.06 183l-.06.63z" fill="#212121"/><path d="M627.85 426.34l-.46-.18 15-137.88.44-.11c15.28-3.82 35.86-3.49 46.77-2.95a7.21 7.21 0 016.74 6.09l18.07 119-.14.21c-12.5 17.84-31.59 22.7-48.65 22.7a115.34 115.34 0 01-37.77-6.88z" fill="#01579b"/><path d="M699.43 466.63l-.55-.05-9.6-181.72 29.17 6.59A13.18 13.18 0 01728.58 306l-3.78 30.2 1.29 53.14c.91 3.26 15.68 57.34 7.47 71.42a6.56 6.56 0 01-4.06 3.3 102.09 102.09 0 01-24.06 2.81c-3.68-.04-5.96-.24-6.01-.24zm-85.91 1.23a10.35 10.35 0 01-5.78-6.87c-1.9-7.65 4.52-17.27 5.45-18.61l7.81-73.73-11.6-68.12a8.68 8.68 0 017.11-10l.49-.07 32.88-3.66-1.67 70.07c14.12 47.7-16.62 116.49-16.93 117.18l-.17.38h-.42c-.17-.01-4.2-.09-17.17-6.57z" fill="#424242"/><circle cx="665.8" cy="240.91" r="31.88" fill="#ffb8b8"/><path d="M702.31 433.74a12.16 12.16 0 0110-14 11.8 11.8 0 012.14-.16l11-25.53 17.24 2.95-16.09 35.84a12.24 12.24 0 01-24.29.9z" fill="#ffb8b8"/><path d="M717.85 410.35l9.15-54.68-15.57-25.94 4-37 .88-.22a13.26 13.26 0 0115.11 7.11l25.43 53.06.1.22-18.47 72.55z" fill="#424242"/><path d="M686.7 266.62c.73.21 3.79-3.24 7.14-7.39a38.49 38.49 0 008-31.25c-.05-.24-.1-.48-.14-.7-1.11-5.28-6.15-10.14-11.43-9 .4-4.68-2.75-9.09-6.74-11.56s-8.73-3.38-13.34-4.25c-5.26-1-10.59-2-15.94-1.66a31.14 31.14 0 00-14.53 4.65 30.68 30.68 0 00-12.89 33.15c6.74-7.61 14.7-16 26.17-12.61a20.89 20.89 0 017.16 3.74c7 5.49 10.51 13.58 13.91 21.49 1.7-4.33 8-6 11.58-3a10 10 0 013.16 8 29.73 29.73 0 01-2 8.67m-4.22 120.83h-1.5v-5.9a6.62 6.62 0 00-6.6-6.6h-18.8a6.59 6.59 0 00-6.6 6.58v40.82a6.62 6.62 0 006.6 6.6h18.8a6.62 6.62 0 006.6-6.6v-27.9h1.5z" fill="#212121"/><circle cx="665.59" cy="392.73" r="4" fill="#fff"/><path d="M668.85 408.67a12.16 12.16 0 00-16.2-5.8 13.14 13.14 0 00-1.85 1.08l-23.59-14.75-12.46 12.14 33.59 20.37a12.24 12.24 0 0020.51-13z" fill="#ffb8b8"/><path d="M584.52 380.56l21.57-81.51a8.74 8.74 0 019.95-6.32l7.42 1.35 7.9 43.47-16.07 36.65 29.07 17.45-4.08 32.72zm245.05 331.17h-381a1 1 0 110-2h381a1 1 0 110 2z" fill="#424242"/></svg>